<?xml version="1.0" encoding="utf-8"?>
<!-- Generator: Adobe Illustrator 15.0.0, SVG Export Plug-In . SVG Version: 6.00 Build 0)  -->
<!DOCTYPE svg PUBLIC "-//W3C//DTD SVG 1.1//EN" "http://www.w3.org/Graphics/SVG/1.1/DTD/svg11.dtd">
<svg version="1.1" id="レイヤー_1" xmlns="http://www.w3.org/2000/svg" xmlns:xlink="http://www.w3.org/1999/xlink" x="0px"
	 y="0px" width="80px" height="80px" viewBox="0 0 80 80" enable-background="new 0 0 80 80" xml:space="preserve">
<path fill="#717071" d="M12.721,45.242c-0.109-0.147-0.18-0.325-0.2-0.524c-0.061-0.635,0.422-1.243,1.082-1.358l14.959-2.607
	c0.658-0.114,1.245,0.306,1.308,0.942c0.063,0.636-0.421,1.244-1.081,1.358L13.829,45.66C13.376,45.738,12.959,45.564,12.721,45.242
	"/>
<path fill="#595757" d="M13.126,55.02v-8.209H9.803l0.68,7.147c0.058,0.603,0.564,1.063,1.169,1.062H13.126z M11.652,55.02"/>
<path fill="#595757" d="M13.083,55.02c0,0,1.307,0,1.308,0c0.572,0.001,1.06-0.413,1.153-0.977c0.005-0.019,0.008-0.036,0.01-0.056
	l0.018-0.14l0.023-0.194l0.096-0.783l0.023-0.195l0.023-0.194l0.096-0.783l0.023-0.195l0.023-0.193l0.096-0.785L16,50.329
	l0.023-0.193l0.096-0.784l0.023-0.196l0.024-0.193l0.023-0.194l0.999-1.957h-4.104V55.02L13.083,55.02z M13.083,55.02"/>
<g>
	<g>
		<path fill="#6A6A70" d="M14.181,33.438L14.181,33.438c-0.586,0-1.066-0.539-1.066-1.198v-4.79c0-0.659,0.48-1.197,1.066-1.197
			s1.065,0.538,1.065,1.197v4.79C15.246,32.899,14.767,33.438,14.181,33.438"/>
		<path fill="#6A6A70" d="M25.807,30.447H2.555c-0.802,0-1.454-0.309-1.454-0.688s0.652-0.689,1.454-0.689h23.252
			c0.802,0,1.452,0.309,1.452,0.689C27.26,30.138,26.609,30.447,25.807,30.447"/>
	</g>
	<polygon fill="#C8C9CA" points="16.22,40.265 11.805,40.265 11.805,32.209 16.22,32.209 	"/>
	<path fill="#717071" d="M13.436,43.357c-0.129-0.135-0.227-0.303-0.276-0.498c-0.159-0.623,0.226-1.282,0.859-1.473l14.36-4.313
		c0.631-0.189,1.274,0.162,1.433,0.784c0.158,0.624-0.226,1.283-0.86,1.473l-14.359,4.313
		C14.157,43.774,13.719,43.649,13.436,43.357"/>
	<polyline fill="#717071" points="17.056,44.985 17.056,40.561 10.753,40.561 10.753,44.985 	"/>
	<polyline fill="#717071" points="17.056,40.6 17.056,38.7 9.859,38.7 9.859,40.6 	"/>
</g>
<polyline fill="#717071" points="17.056,46.849 17.056,44.948 9.859,44.948 9.859,46.849 "/>
<g>
	<path fill="#3E3A39" d="M66.02,33.438L66.02,33.438c0.587,0,1.066-0.539,1.066-1.198v-4.79c0-0.659-0.479-1.197-1.066-1.197
		c-0.585,0-1.064,0.539-1.064,1.197v4.79C64.955,32.899,65.435,33.438,66.02,33.438"/>
	<path fill="#3E3A39" d="M54.395,30.447h23.252c0.802,0,1.453-0.308,1.453-0.688c0-0.38-0.651-0.689-1.453-0.689H54.395
		c-0.802,0-1.453,0.309-1.453,0.689C52.941,30.139,53.592,30.447,54.395,30.447"/>
</g>
<polygon fill="#B4B4B5" points="63.832,40.265 68.247,40.265 68.247,32.21 63.832,32.21 "/>
<path fill="#4B565B" d="M66.616,43.357c0.13-0.135,0.228-0.303,0.277-0.497c0.157-0.624-0.227-1.283-0.86-1.474l-14.36-4.313
	c-0.631-0.189-1.272,0.161-1.433,0.784c-0.158,0.625,0.227,1.284,0.859,1.473l14.359,4.313
	C65.896,43.774,66.333,43.649,66.616,43.357"/>
<path fill="#4B565B" d="M67.331,45.242c0.109-0.147,0.18-0.325,0.2-0.524c0.061-0.635-0.422-1.243-1.081-1.358l-14.959-2.607
	c-0.658-0.114-1.244,0.306-1.309,0.942c-0.062,0.636,0.421,1.244,1.082,1.358l14.959,2.607
	C66.676,45.738,67.094,45.564,67.331,45.242"/>
<path fill="#3E3A39" d="M68.4,55.02c0.605,0.001,1.111-0.459,1.169-1.061l0.68-7.148h-3.322v8.209H68.4z M68.4,55.02"/>
<path fill="#3E3A39" d="M66.97,55.02v-8.209h-4.105l0.999,1.957l0.023,0.194l0.023,0.194l0.023,0.195l0.096,0.784l0.023,0.193
	l0.023,0.195l0.096,0.784l0.023,0.193l0.023,0.196l0.096,0.783l0.024,0.193l0.022,0.195l0.096,0.783l0.023,0.194l0.018,0.141
	c0.002,0.019,0.005,0.036,0.01,0.055c0.093,0.564,0.582,0.979,1.154,0.977H66.97L66.97,55.02z M66.97,55.02"/>
<g>
	<polyline fill="#4B565B" points="62.996,45.01 62.996,40.585 69.299,40.585 69.299,45.01 	"/>
	<polyline fill="#4B565B" points="62.997,40.6 62.997,38.7 70.193,38.7 70.193,40.6 	"/>
	<polyline fill="#4B565B" points="62.996,46.873 62.996,44.973 70.193,44.973 70.193,46.873 	"/>
</g>
<g>
	<path fill="#E7E6E5" d="M53.342,39.377c0.007-0.071,0.017-0.143,0.017-0.216v-1.615c0-1.785-2.24-3.232-5.005-3.232H31.79
		c-2.764,0-5.004,1.447-5.004,3.232v1.615c0,0.073,0.009,0.145,0.017,0.216"/>
	<path fill="#D2D0D0" d="M48.277,34.314h-8.205v5.063H53.22c0.007-0.071,0.017-0.143,0.017-0.216v-1.615
		C53.236,35.761,51.016,34.314,48.277,34.314z"/>
	<path fill="#231815" d="M26.785,39.329c-0.007,0.122-0.017,0.242-0.017,0.366v2.74c0,3.026,2.241,5.48,5.004,5.48h16.565
		c2.764,0,5.004-2.454,5.004-5.48v-2.74c0-0.124-0.009-0.244-0.017-0.366"/>
	<g>
		<line fill="#231815" x1="31.802" y1="39.396" x2="26.785" y2="39.396"/>
		<line fill="#231815" x1="48.309" y1="39.396" x2="53.325" y2="39.396"/>
		<path fill="#231815" d="M31.802,39.396c0.362-1.468,1.583-2.55,3.039-2.55H45.27c1.456,0,2.678,1.082,3.039,2.55"/>
	</g>
	<path fill="#636F74" d="M40.056,39.379h-8.254h-5.017c-0.007,0.122-0.017,0.242-0.017,0.366v2.739c0,3.027,2.241,5.481,5.004,5.481
		h8.284V39.379z"/>
	<path fill="#636F74" d="M40.056,36.829h-5.215c-1.456,0-2.677,1.082-3.039,2.55h8.254V36.829z"/>
</g>
<g>
	<g>
		<path fill="#3A4247" d="M39.964,38.629v6.531c1.802,0,3.265-1.461,3.265-3.264C43.229,40.091,41.766,38.629,39.964,38.629z"/>
		<path fill="#4B565B" d="M39.997,38.629c-1.803,0-3.266,1.462-3.266,3.267c0,1.803,1.462,3.264,3.266,3.264V38.629z"/>
	</g>
	<g>
		<path fill="#484545" d="M39.997,39.683c-1.221,0-2.212,0.99-2.212,2.212c0,1.222,0.991,2.212,2.212,2.212V39.683z"/>
		<path fill="#231815" d="M39.997,39.683v4.424c1.221,0,2.211-0.99,2.211-2.212C42.208,40.673,41.218,39.683,39.997,39.683z"/>
	</g>
</g>
</svg>
