<?xml version="1.0" encoding="utf-8"?>
<!-- Generator: Adobe Illustrator 15.0.0, SVG Export Plug-In . SVG Version: 6.00 Build 0)  -->
<!DOCTYPE svg PUBLIC "-//W3C//DTD SVG 1.1//EN" "http://www.w3.org/Graphics/SVG/1.1/DTD/svg11.dtd">
<svg version="1.1" id="Capa_1" xmlns="http://www.w3.org/2000/svg" xmlns:xlink="http://www.w3.org/1999/xlink" x="0px" y="0px"
	 width="80px" height="80px" viewBox="0 0 80 80" enable-background="new 0 0 80 80" xml:space="preserve">
<path fill="#FFAB15" d="M40.432,35.054h-0.863c-4.315,0-7.813-3.498-7.813-7.813v-9.272c0-4.314,3.498-7.813,7.813-7.813h0.863
	c4.314,0,7.813,3.498,7.813,7.813v9.272C48.244,31.556,44.746,35.054,40.432,35.054z"/>
<path fill="#FF6849" d="M36.808,36.197l-0.61,0.61c-3.051,3.051-7.998,3.051-11.049,0l-6.557-6.557
	c-3.051-3.051-3.051-7.998,0-11.049l0.61-0.61c3.051-3.051,7.998-3.051,11.049,0l6.557,6.557
	C39.858,28.2,39.858,33.146,36.808,36.197z"/>
<path fill="#FF5AD4" d="M35.054,39.568v0.863c0,4.314-3.498,7.813-7.813,7.813h-9.272c-4.314,0-7.813-3.498-7.813-7.813v-0.863
	c0-4.314,3.498-7.813,7.813-7.813h9.272C31.556,31.756,35.054,35.253,35.054,39.568z"/>
<path fill="#CD67E5" d="M36.197,43.191l0.61,0.61c3.051,3.052,3.051,7.998,0,11.05l-6.557,6.557c-3.051,3.051-7.998,3.051-11.049,0
	l-0.61-0.61c-3.051-3.052-3.051-7.997,0-11.049l6.557-6.558C28.2,40.142,33.146,40.142,36.197,43.191z"/>
<path fill="#00C3FF" d="M39.568,44.945h0.863c4.314,0,7.813,3.498,7.813,7.813v9.272c0,4.314-3.498,7.813-7.813,7.813h-0.863
	c-4.314,0-7.813-3.498-7.813-7.813v-9.272C31.756,48.443,35.253,44.945,39.568,44.945z"/>
<path fill="#39E5D0" d="M43.191,43.803l0.61-0.609c3.052-3.051,7.998-3.051,11.05,0l6.557,6.557c3.051,3.051,3.051,7.997,0,11.049
	l-0.61,0.61c-3.052,3.051-7.997,3.051-11.049,0l-6.558-6.558C40.142,51.801,40.142,46.854,43.191,43.803z"/>
<path fill="#BEE548" d="M44.945,40.432v-0.863c0-4.315,3.498-7.813,7.813-7.813h9.272c4.314,0,7.813,3.498,7.813,7.813v0.863
	c0,4.314-3.498,7.813-7.813,7.813h-9.272C48.443,48.244,44.945,44.746,44.945,40.432z"/>
<path fill="#FFDC40" d="M43.803,36.808l-0.609-0.61c-3.051-3.051-3.051-7.998,0-11.049l6.557-6.557
	c3.051-3.051,7.997-3.051,11.049,0l0.61,0.61c3.051,3.051,3.051,7.998,0,11.049l-6.558,6.557
	C51.801,39.858,46.854,39.858,43.803,36.808z"/>
<path fill="#FF9400" d="M40.432,10.156H40v24.897h0.432c4.314,0,7.813-3.498,7.813-7.813v-9.272
	C48.244,13.654,44.746,10.156,40.432,10.156z"/>
<path fill="#00AAF0" d="M40.432,44.945H40v24.897h0.432c4.314,0,7.813-3.497,7.813-7.813v-9.271
	C48.244,48.443,44.746,44.945,40.432,44.945z"/>
<path fill="#FD4B2D" d="M31.756,20.097v7.144c0,3.733,2.619,6.852,6.118,7.626c1.927-3.022,1.573-7.08-1.066-9.719L31.756,20.097z"
	/>
<path fill="#E08344" d="M43.191,25.148c-2.64,2.64-2.992,6.697-1.065,9.719c3.5-0.774,6.118-3.894,6.118-7.626v-7.145L43.191,25.148
	z"/>
<path fill="#82B415" d="M45.133,37.874c3.021,1.927,7.08,1.573,9.719-1.066l5.053-5.052H52.76
	C49.025,31.756,45.907,34.374,45.133,37.874z"/>
<path fill="#66CC70" d="M45.133,42.126c0.774,3.5,3.895,6.118,7.627,6.118h7.145l-5.053-5.053
	C52.212,40.553,48.154,40.199,45.133,42.126z"/>
<path fill="#107BE5" d="M48.244,52.759c0-3.731-2.619-6.852-6.118-7.626c-1.927,3.021-1.573,7.079,1.065,9.719l5.053,5.053V52.759
	L48.244,52.759z"/>
<path fill="#A056B2" d="M31.756,52.759v7.144l5.052-5.051c2.64-2.64,2.994-6.697,1.066-9.719
	C34.374,45.907,31.756,49.025,31.756,52.759z"/>
<path fill="#FF26BE" d="M25.148,43.191l-5.051,5.053h7.144c3.732,0,6.852-2.618,7.626-6.117
	C31.845,40.199,27.788,40.553,25.148,43.191z"/>
<path fill="#EA596E" d="M34.867,37.874c-0.774-3.5-3.894-6.118-7.626-6.118h-7.144l5.052,5.052
	C27.788,39.447,31.845,39.801,34.867,37.874z"/>
<path fill="#62CD4D" stroke="#FFFFFF" stroke-miterlimit="10" d="M20.631,38.054c-1.665,1.672-2.256,4.008-1.772,6.146
	c2.139,0.481,4.47-0.108,6.136-1.772c1.663-1.664,2.255-4.006,1.773-6.145C24.627,35.799,22.296,36.389,20.631,38.054z"/>
<path fill="#A0E557" stroke="#FFFFFF" stroke-miterlimit="10" d="M28.335,47.294c-2.706-0.957-5.729-0.085-8.236,2.058
	c-2.507-2.14-5.527-3.015-8.234-2.058c-4.696,1.661-6.667,8.2-4.403,14.604c2.263,6.406,7.905,10.254,12.603,8.596
	c0.011-0.005,0.023-0.012,0.035-0.016c0.014,0.006,0.025,0.011,0.038,0.016c4.695,1.658,10.338-2.189,12.597-8.596
	C34.997,55.494,33.025,48.955,28.335,47.294z"/>
</svg>
