<?xml version="1.0" encoding="utf-8"?>
<!-- Generator: Adobe Illustrator 15.0.0, SVG Export Plug-In . SVG Version: 6.00 Build 0)  -->
<!DOCTYPE svg PUBLIC "-//W3C//DTD SVG 1.1//EN" "http://www.w3.org/Graphics/SVG/1.1/DTD/svg11.dtd">
<svg version="1.1" id="レイヤー_1" xmlns="http://www.w3.org/2000/svg" xmlns:xlink="http://www.w3.org/1999/xlink" x="0px"
	 y="0px" width="116px" height="95px" viewBox="0 0 116 95" enable-background="new 0 0 116 95" xml:space="preserve">
<title>microbit-illustration</title>
<desc>Created with Sketch.</desc>
<path fill="#CCCCFF" d="M36.012,24.283c1.129-1.126,1.549-2.69,1.267-4.142l0.956-0.958l7.271-7.27
	c-2.005-2.007-5.252-2.012-7.271-0.018c0,0-0.002,0-0.002-0.002l-0.018,0.02l-4.586,4.585c-1.455-0.284-3.018,0.137-4.144,1.264
	c-1.128,1.128-1.548,2.688-1.267,4.143l-2.67,2.668l-7.271,7.271c2.007,2.004,5.257,2.011,7.271,0.017l0,0l0.023-0.017l6.293-6.292
	C33.322,25.83,34.884,25.407,36.012,24.283z"/>
<path fill="#CCCCFF" d="M87.421,75.742c1.126-1.125,1.552-2.688,1.269-4.141l0.957-0.959l7.274-7.271
	c-2.008-2.011-5.258-2.015-7.274-0.021l0,0l-0.018,0.021l-4.586,4.582c-1.455-0.285-3.021,0.139-4.146,1.264
	c-1.127,1.132-1.545,2.688-1.266,4.146l-2.668,2.666l-7.271,7.271c2.008,2.004,5.258,2.008,7.271,0.016l0,0l0.02-0.016l6.293-6.295
	C84.729,77.293,86.294,76.869,87.421,75.742z"/>
<path fill="#CCCCFF" d="M78.691,20.667c0-1.591,0.807-2.994,2.035-3.822v-1.358V5.207c2.84,0,5.141,2.293,5.154,5.124
	c0,0,0,0,0.004,0v0.028v6.481c1.225,0.831,2.035,2.231,2.035,3.825c0,1.593-0.813,2.996-2.035,3.826v3.771v10.282
	c-2.839,0-5.14-2.294-5.154-5.125c-0.004,0-0.004,0-0.004,0v-0.028v-8.899C79.497,23.66,78.691,22.258,78.691,20.667z"/>
<path fill="#CCCCFF" d="M27.78,75.742c-1.128-1.125-1.546-2.688-1.267-4.145l-0.96-0.955l-7.271-7.271
	c2.007-2.011,5.257-2.015,7.271-0.021l0,0l0.023,0.021l4.581,4.582c1.455-0.285,3.021,0.139,4.146,1.264
	c1.125,1.132,1.549,2.688,1.267,4.146l2.666,2.666l7.276,7.271c-2.009,2.004-5.257,2.008-7.273,0.016h-0.002l-0.018-0.016
	l-6.293-6.295C30.47,77.293,28.904,76.869,27.78,75.742z"/>
<path fill="#3CB2E7" stroke="#2AB2E8" stroke-width="0.5436" stroke-miterlimit="10" d="M80.043,28.755v-0.101l0,0
	c-2.202,0-3.984-1.78-3.984-3.981l0,0c-15.162,15.185-21.404,15.042-36.422,0h-0.011l0,0c0,2.199-1.782,3.977-3.979,3.981
	C50.583,43.595,50.729,49.84,35.66,64.92c2.192,0.008,3.965,1.787,3.965,3.979c0,0.195-0.021,0.394-0.046,0.576h0.002
	c15.042-15.125,21.3-15.27,36.478-0.008c0.006-2.195,1.787-3.971,3.984-3.971l0,0v-0.072C64.441,50.324,64.298,43.995,80.043,28.755
	z"/>
<path fill="none" stroke="#C8C7E3" stroke-width="2.1745" stroke-miterlimit="10" d="M83.119,4c9.878,0,17.886,8.003,17.886,17.876
	c0,9.872-8.008,17.875-17.886,17.875c-9.873,0-17.883-8.003-17.883-17.875C65.236,12.003,73.246,4,83.119,4z"/>
<ellipse fill="none" stroke="#C8C7E3" stroke-width="2.1745" stroke-miterlimit="10" cx="31.894" cy="21.878" rx="17.882" ry="17.874"/>
<ellipse fill="none" stroke="#C8C7E3" stroke-width="2.1745" stroke-miterlimit="10" cx="31.896" cy="73.127" rx="17.882" ry="17.873"/>
<path fill="none" stroke="#C8C7E3" stroke-width="2.1745" stroke-miterlimit="10" d="M83.119,55.246
	c9.878,0,17.886,8.004,17.886,17.877S92.997,91,83.119,91c-9.873,0-17.883-8.004-17.883-17.877S73.246,55.246,83.119,55.246z"/>
</svg>
