<?xml version="1.0" encoding="utf-8"?>
<!-- Generator: Adobe Illustrator 15.0.0, SVG Export Plug-In . SVG Version: 6.00 Build 0)  -->
<!DOCTYPE svg PUBLIC "-//W3C//DTD SVG 1.1//EN" "http://www.w3.org/Graphics/SVG/1.1/DTD/svg11.dtd">
<svg version="1.1" id="レイヤー_1" xmlns="http://www.w3.org/2000/svg" xmlns:xlink="http://www.w3.org/1999/xlink" x="0px"
	 y="0px" width="40px" height="40px" viewBox="0 0 40 40" enable-background="new 0 0 40 40" xml:space="preserve">
<title>microbit-block-icon</title>
<desc>Created with Sketch.</desc>
<path fill="#CCCCFF" d="M12.334,11.528c0.426-0.425,0.584-1.014,0.479-1.563l0.361-0.363l2.746-2.745
	c-0.757-0.758-1.983-0.76-2.746-0.008h0l-0.006,0.008l-1.732,1.73c-0.549-0.106-1.14,0.053-1.565,0.479
	c-0.426,0.425-0.584,1.015-0.479,1.565l-1.008,1.007l-2.747,2.747c0.758,0.757,1.985,0.76,2.747,0.006l0,0l0.009-0.006l2.377-2.376
	C11.318,12.113,11.908,11.954,12.334,11.528z"/>
<path fill="#CCCCFF" d="M31.76,30.961c0.425-0.425,0.588-1.016,0.479-1.564l0.361-0.361l2.748-2.747
	c-0.76-0.758-1.985-0.76-2.748-0.008l0,0l-0.006,0.008l-1.732,1.73c-0.551-0.105-1.142,0.054-1.566,0.479
	c-0.426,0.427-0.583,1.015-0.479,1.566l-1.007,1.007l-2.747,2.745c0.759,0.757,1.985,0.759,2.747,0.007l0,0l0.007-0.007l2.377-2.376
	C30.743,31.546,31.334,31.387,31.76,30.961z"/>
<path fill="#CCCCFF" d="M28.464,10.164c0-0.602,0.304-1.132,0.77-1.444V8.207V4.325c1.072,0,1.939,0.866,1.944,1.936
	c0,0,0,0,0.003,0V6.27v2.448c0.463,0.314,0.77,0.842,0.77,1.444s-0.308,1.132-0.77,1.446v1.424v3.883
	c-1.072,0-1.941-0.866-1.947-1.936l0,0v-0.011v-3.361C28.768,11.294,28.464,10.764,28.464,10.164z"/>
<path fill="#CCCCFF" d="M9.225,30.961c-0.426-0.425-0.584-1.016-0.479-1.566l-0.363-0.359l-2.747-2.747
	c0.758-0.758,1.986-0.76,2.747-0.008l0,0l0.009,0.008l1.73,1.73c0.549-0.105,1.141,0.054,1.565,0.479
	c0.425,0.427,0.585,1.015,0.479,1.566l1.007,1.007l2.749,2.745c-0.759,0.757-1.985,0.759-2.747,0.007h0l-0.007-0.007l-2.377-2.376
	C10.241,31.546,9.649,31.387,9.225,30.961z"/>
<path fill="#3CB2E7" stroke="#2AB2E8" stroke-width="0.2053" stroke-miterlimit="10" d="M28.974,13.218v-0.039l0,0
	c-0.832,0-1.505-0.672-1.505-1.502l0,0c-5.728,5.734-8.094,5.681-13.767,0h-0.004l0,0c0,0.83-0.673,1.5-1.503,1.502
	c5.642,5.644,5.697,8,0.005,13.694c0.829,0.003,1.498,0.676,1.498,1.502c0,0.075-0.008,0.148-0.017,0.22h0.001
	c5.681-5.715,8.055-5.77,13.787-0.004c0.003-0.83,0.675-1.501,1.505-1.501l0,0v-0.026C23.081,21.361,23.026,18.975,28.974,13.218z"
	/>
<path fill="none" stroke="#C8C7E3" stroke-width="0.8213" stroke-miterlimit="10" d="M30.137,3.868c3.73,0,6.754,3.022,6.754,6.752
	c0,3.729-3.023,6.75-6.754,6.75s-6.755-3.022-6.755-6.75S26.406,3.868,30.137,3.868z"/>
<ellipse fill="none" stroke="#C8C7E3" stroke-width="0.8213" stroke-miterlimit="10" cx="10.778" cy="10.621" rx="6.751" ry="6.751"/>
<ellipse fill="none" stroke="#C8C7E3" stroke-width="0.8213" stroke-miterlimit="10" cx="10.779" cy="29.973" rx="6.75" ry="6.75"/>
<path fill="none" stroke="#C8C7E3" stroke-width="0.8213" stroke-miterlimit="10" d="M30.137,23.22c3.73,0,6.754,3.023,6.754,6.752
	s-3.023,6.752-6.754,6.752s-6.755-3.023-6.755-6.752S26.406,23.22,30.137,23.22z"/>
</svg>
